<svg xmlns="http://www.w3.org/2000/svg" viewBox="0 0 64 64" fill="none">
  <title>Monologger Favicon</title>
  
  <defs>
    <!-- グラデーション定義 -->
    <linearGradient id="bgGradient" x1="0%" y1="0%" x2="100%" y2="100%">
      <stop offset="0%" style="stop-color:#1e293b;stop-opacity:1" />
      <stop offset="100%" style="stop-color:#0f172a;stop-opacity:1" />
    </linearGradient>
    
    <linearGradient id="micGradient" x1="0%" y1="0%" x2="100%" y2="100%">
      <stop offset="0%" style="stop-color:#06b6d4;stop-opacity:1" />
      <stop offset="100%" style="stop-color:#3b82f6;stop-opacity:1" />
    </linearGradient>
    
    <linearGradient id="logGradient" x1="0%" y1="0%" x2="100%" y2="100%">
      <stop offset="0%" style="stop-color:#10b981;stop-opacity:1" />
      <stop offset="100%" style="stop-color:#06b6d4;stop-opacity:1" />
    </linearGradient>
    
    <!-- グローエフェクト -->
    <filter id="glow">
      <feGaussianBlur stdDeviation="2" result="coloredBlur"/>
      <feMerge> 
        <feMergeNode in="coloredBlur"/>
        <feMergeNode in="SourceGraphic"/>
      </feMerge>
    </filter>
  </defs>

  <!-- 背景 -->
  <rect width="64" height="64" rx="12" ry="12" fill="url(#bgGradient)"/>
  
  <!-- 背景グロー -->
  <circle cx="32" cy="32" r="24" fill="url(#micGradient)" opacity="0.1" filter="url(#glow)"/>
  
  <!-- メインのマイクアイコン -->
  <rect x="26" y="18" width="12" height="18" rx="6" ry="6" fill="url(#micGradient)" stroke="#ffffff" stroke-width="1"/>
  
  <!-- マイクのグリル -->
  <line x1="28" y1="22" x2="36" y2="22" stroke="#ffffff" stroke-width="1" opacity="0.8"/>
  <line x1="28" y1="26" x2="36" y2="26" stroke="#ffffff" stroke-width="1" opacity="0.8"/>
  <line x1="28" y1="30" x2="36" y2="30" stroke="#ffffff" stroke-width="1" opacity="0.8"/>
  <line x1="28" y1="34" x2="36" y2="34" stroke="#ffffff" stroke-width="1" opacity="0.8"/>
  
  <!-- マイクスタンド -->
  <line x1="32" y1="36" x2="32" y2="42" stroke="url(#micGradient)" stroke-width="3"/>
  <ellipse cx="32" cy="42" rx="4" ry="1.5" fill="url(#micGradient)"/>
  
  <!-- ログインジケーター -->
  <circle cx="18" cy="46" r="3" fill="url(#logGradient)" opacity="0.9"/>
  <rect x="14" y="44" width="8" height="4" rx="1" fill="url(#logGradient)" opacity="0.7"/>
  
  <!-- ログ行 -->
  <line x1="15" y1="45.5" x2="20" y2="45.5" stroke="#ffffff" stroke-width="0.5" opacity="0.8"/>
  <line x1="15" y1="46.5" x2="21" y2="46.5" stroke="#ffffff" stroke-width="0.5" opacity="0.8"/>
  
  <!-- 音波 -->
  <path d="M 40 24 Q 44 28 40 32" stroke="#06b6d4" stroke-width="2" fill="none" opacity="0.6">
    <animate attributeName="opacity" values="0.3;0.8;0.3" dur="2s" repeatCount="indefinite"/>
  </path>
  <path d="M 44 20 Q 50 28 44 36" stroke="#06b6d4" stroke-width="2" fill="none" opacity="0.4">
    <animate attributeName="opacity" values="0.2;0.6;0.2" dur="2s" repeatCount="indefinite" begin="0.5s"/>
  </path>
  
  <!-- アクセントドット -->
  <circle cx="48" cy="16" r="2" fill="#10b981" opacity="0.8">
    <animate attributeName="opacity" values="0.4;1;0.4" dur="3s" repeatCount="indefinite"/>
  </circle>
</svg>
