<svg
  xmlns="http://www.w3.org/2000/svg"
  width="24"
  height="24"
  viewBox="0 0 24 24"
  fill="none"
  stroke="currentColor"
  stroke-width="1.5"
  stroke-linecap="round"
  stroke-linejoin="round"
  aria-hidden="true"
>
  <title>書斎のテックギア ロゴ</title>
  <path d="M4 19.5A2.5 2.5 0 0 1 1.5 17V7A2.5 2.5 0 0 1 4 4.5h1.5V17a2.5 2.5 0 0 0 2.5 2.5h10.5v-1.5H8A2.5 2.5 0 0 1 5.5 17V4.5H4z" />
  <circle cx="15.5" cy="8.5" r="2.5" />
  <path d="M15.5 6V4" />
  <path d="M15.5 11v2" />
  <path d="M18 7l1.5-1.5" />
  <path d="M13 10l-1.5 1.5" />
  <path d="M18 10l1.5 1.5" />
  <path d="M13 7l-1.5-1.5" />
</svg> 