<svg
  xmlns="http://www.w3.org/2000/svg"
  width="32" 
  height="32" 
  viewBox="0 0 32 32" 
  fill="none"
  aria-hidden="true"
>
  <title>Monologger ロゴ</title>
  
  <defs>
    <!-- グラデーション定義 -->
    <linearGradient id="micGradient" x1="0%" y1="0%" x2="100%" y2="100%">
      <stop offset="0%" style="stop-color:#06b6d4;stop-opacity:1" />
      <stop offset="100%" style="stop-color:#3b82f6;stop-opacity:1" />
    </linearGradient>
    
    <linearGradient id="logGradient" x1="0%" y1="0%" x2="100%" y2="100%">
      <stop offset="0%" style="stop-color:#10b981;stop-opacity:1" />
      <stop offset="100%" style="stop-color:#06b6d4;stop-opacity:1" />
    </linearGradient>
    
    <linearGradient id="waveGradient" x1="0%" y1="0%" x2="100%" y2="0%">
      <stop offset="0%" style="stop-color:#06b6d4;stop-opacity:0.8" />
      <stop offset="50%" style="stop-color:#3b82f6;stop-opacity:0.6" />
      <stop offset="100%" style="stop-color:#06b6d4;stop-opacity:0.8" />
    </linearGradient>
    
    <!-- グローエフェクト -->
    <filter id="glow">
      <feGaussianBlur stdDeviation="2" result="coloredBlur"/>
      <feMerge> 
        <feMergeNode in="coloredBlur"/>
        <feMergeNode in="SourceGraphic"/>
      </feMerge>
    </filter>
  </defs>

  <!-- 背景の円形グロー -->
  <circle cx="16" cy="16" r="14" fill="url(#micGradient)" opacity="0.15" filter="url(#glow)"/>
  
  <!-- マイクのボディ -->
  <rect x="12" y="8" width="8" height="12" rx="4" ry="4" fill="url(#micGradient)" stroke="#ffffff" stroke-width="0.5"/>
  
  <!-- マイクのグリル -->
  <line x1="14" y1="10" x2="18" y2="10" stroke="#ffffff" stroke-width="0.5" opacity="0.8"/>
  <line x1="14" y1="12" x2="18" y2="12" stroke="#ffffff" stroke-width="0.5" opacity="0.8"/>
  <line x1="14" y1="14" x2="18" y2="14" stroke="#ffffff" stroke-width="0.5" opacity="0.8"/>
  <line x1="14" y1="16" x2="18" y2="16" stroke="#ffffff" stroke-width="0.5" opacity="0.8"/>
  <line x1="14" y1="18" x2="18" y2="18" stroke="#ffffff" stroke-width="0.5" opacity="0.8"/>
  
  <!-- マイクスタンド -->
  <line x1="16" y1="20" x2="16" y2="24" stroke="url(#micGradient)" stroke-width="2"/>
  <ellipse cx="16" cy="24" rx="3" ry="1" fill="url(#micGradient)"/>
  
  <!-- 音波エフェクト -->
  <path d="M 22 12 Q 24 14 22 16" stroke="url(#waveGradient)" stroke-width="1.5" fill="none" opacity="0.7">
    <animate attributeName="opacity" values="0.4;0.8;0.4" dur="2s" repeatCount="indefinite"/>
  </path>
  <path d="M 24 10 Q 27 14 24 18" stroke="url(#waveGradient)" stroke-width="1.5" fill="none" opacity="0.5">
    <animate attributeName="opacity" values="0.3;0.7;0.3" dur="2s" repeatCount="indefinite" begin="0.5s"/>
  </path>
  
  <!-- ログファイルアイコン -->
  <rect x="4" y="18" width="8" height="10" rx="1" ry="1" fill="url(#logGradient)" opacity="0.9"/>
  <rect x="4" y="18" width="8" height="2" rx="1" ry="1" fill="#ffffff" opacity="0.3"/>
  
  <!-- ログファイルの線（コード行を表現） -->
  <line x1="5" y1="21" x2="10" y2="21" stroke="#ffffff" stroke-width="0.5" opacity="0.8"/>
  <line x1="5" y1="22.5" x2="9" y2="22.5" stroke="#ffffff" stroke-width="0.5" opacity="0.6"/>
  <line x1="5" y1="24" x2="11" y2="24" stroke="#ffffff" stroke-width="0.5" opacity="0.8"/>
  <line x1="5" y1="25.5" x2="8" y2="25.5" stroke="#ffffff" stroke-width="0.5" opacity="0.6"/>
  <line x1="5" y1="27" x2="10" y2="27" stroke="#ffffff" stroke-width="0.5" opacity="0.8"/>
  
  <!-- データフロー矢印 -->
  <path d="M 12 20 L 13 19.5 L 13 20.5 Z" fill="url(#waveGradient)" opacity="0.8">
    <animateTransform attributeName="transform" type="translate" values="0,0; 2,0; 0,0" dur="3s" repeatCount="indefinite"/>
  </path>
</svg> 